<?xml version="1.0" encoding="utf-8"?>
<!-- Generator: Adobe Illustrator 25.2.1, SVG Export Plug-In . SVG Version: 6.00 Build 0)  -->
<svg version="1.1" id="Layer_1" xmlns="http://www.w3.org/2000/svg" xmlns:xlink="http://www.w3.org/1999/xlink" x="0px" y="0px"
	 viewBox="0 0 104 104" style="enable-background:new 0 0 104 104;" xml:space="preserve">
<style type="text/css">
	.st0{fill:none;stroke:#000000;stroke-width:2;stroke-linecap:round;stroke-linejoin:round;stroke-miterlimit:10;}
	.st1{fill:none;stroke:#FFFFFF;stroke-width:2;stroke-linecap:round;stroke-linejoin:round;stroke-miterlimit:10;}
	.st2{stroke:#000000;stroke-width:2;stroke-linecap:round;stroke-linejoin:round;stroke-miterlimit:10;}
	.st3{fill:none;stroke:#000000;stroke-width:2;stroke-linecap:round;stroke-linejoin:round;}
	.st4{fill:none;stroke:#000000;stroke-width:2;stroke-linecap:round;stroke-linejoin:round;stroke-dasharray:4.6467,4.6467;}
	.st5{fill:none;stroke:#000000;stroke-width:2;stroke-linecap:round;stroke-linejoin:round;stroke-dasharray:6.072,6.072;}
	.st6{fill:#FFFFFF;stroke:#000000;stroke-width:2;stroke-linecap:round;stroke-linejoin:round;stroke-miterlimit:10;}
</style>
<g>
	<g>
		<g>
			<g>
				<circle cx="52.424" cy="47.627" r="11.537"/>
				<g>
					<path class="st1" d="M48.766,51.888h5.137c1.201,0,2.179-0.957,2.179-2.131c0-1.174-0.978-2.131-2.179-2.131h-2.935
						c-1.201,0-2.179-0.957-2.179-2.131c0-1.174,0.978-2.131,2.179-2.131h4.313"/>
					<line class="st1" x1="52.436" y1="40.662" x2="52.436" y2="43.365"/>
					<line class="st1" x1="52.436" y1="51.888" x2="52.436" y2="54.591"/>
				</g>
			</g>
			<g>
				<path class="st0" d="M66.314,88.618h-27.78c-3.314,0-6-2.686-6-6V27.747c0-3.314,2.686-6,6-6h27.78c3.314,0,6,2.686,6,6v54.872
					C72.314,85.932,69.628,88.618,66.314,88.618z"/>
				<path class="st0" d="M23.029,19.768c-0.246,0.667-2.303,6.571,1.309,12.246c3.558,5.591,7.464,6.286,8.196,6.357"/>
				<path class="st0" d="M20.582,27.821c0,0-5.937-6.747,3.981-15.517c0,0,7.286,9.378,1.552,14.91"/>
				<path class="st0" d="M24.657,32.555c0,0-3.892-4.187-9.99,1.543c0,0,4.848,7.199,10.798,2.204"/>
				<path class="st0" d="M72.312,60.581c3.617,2.338,3.143,4.27,0,6.506c-2.813,1.991-7.751,4.219-13.8,7.209
					c-9.132,4.507-7.616,10.674-5.54,14.325c1.059,1.864,2.262,3.075,2.262,3.075"/>
				<path class="st0" d="M72.312,38.089c1.974-2.059,5.218-3.888,10.505-4.015c0,0,1.44,8.861-10.505,15.198"/>
				<line class="st0" x1="77.427" y1="39.486" x2="72.312" y2="43.928"/>
				<path class="st0" d="M52.388,78.636c0,0-4.291-8.799,4.968-12.87c0,0,3.677,3.021-0.394,9.324"/>
				<path class="st0" d="M57.982,74.923c0.362-0.539,1.86,0.571,4.966,0.54c2.991-0.029,4.418-1.086,4.707-0.626
					c0.453,0.721-2.212,4.667-5.434,4.363C59.453,78.938,57.489,75.657,57.982,74.923z"/>
			</g>
			<path class="st0" d="M17.943,51.095c2.28-1.857,5.634-1.513,7.491,0.767c1.857,2.28,1.513,5.634-0.767,7.491"/>
			<circle class="st0" cx="82.527" cy="56.202" r="2.962"/>
			<circle cx="63.123" cy="32.75" r="2.962"/>
		</g>
		<circle cx="28.527" cy="72.855" r="8.352"/>
		<circle cx="83.58" cy="75.454" r="5.752"/>
	</g>
	<path d="M43.686,27.087c-1.254,0-2.508,0-3.757,0c-0.294-0.192-0.355-0.475-0.335-0.798c0.013-0.208,0.002-0.418,0.002-0.707
		c0.586-0.784,1.431-1.406,2.072-2.17c0.649-0.179,1.27-0.069,1.878-0.101c0.487,0.116,0.644,0.906,1.549,0.449
		c0.008-0.007,0.236-0.211,0.463-0.415c0.475,0.574,0.475,0.576,0.001,1.225c-0.105,0-0.213,0.019-0.313-0.004
		c-0.238-0.053-0.431,0.008-0.527,0.237c-0.086,0.205,0.116,0.333,0.603,0.397c0.099,0.013,0.197,0.029,0.296,0.043
		c0.296,0.296,0.591,0.591,0.887,0.887c-0.697,0.517-0.707,0.524-1.489-0.23C44.463,26.173,44.135,26.697,43.686,27.087z"/>
	<path d="M47.776,81.829c0.419,0,0.839,0,1.258,0c0.082,0.502,0.127,0.547,0.629,0.629c0,0.296,0,0.593,0,0.91
		c0.188,0.202,0.386,0.416,0.588,0.634c0.087,0.383,0.099,0.752-0.339,0.973c-0.286,0-0.582,0-0.878,0
		c0-0.497,0.024-0.997-0.017-1.491c-0.01-0.124-0.222-0.238-0.356-0.337c-0.012-0.009-0.19,0.127-0.194,0.201
		c-0.025,0.509-0.172,0.946-0.64,1.234c0.111,0.14,0.195,0.353,0.314,0.375c0.288,0.053,0.594,0.017,0.892,0.017
		c0,0.306,0,0.611,0,1.016c0.398,0.359,0.848,0.766,1.258,1.137c0,0.382,0,0.688,0,0.993c-0.518,0-1.035,0-1.553,0
		c-0.341-0.464-0.349-0.463-0.334-1.454c-0.41-0.667-1.056-1.161-1.534-1.598c-0.418-0.13-0.692-0.216-1.059-0.33
		c0.356-0.357,0.611-0.669,0.921-0.909c0.299-0.232,0.819,0.002,1.041-0.466C47.776,82.864,47.776,82.347,47.776,81.829z"/>
	<path d="M37.079,82.458c-0.07-0.233,0.002-0.405,0.209-0.525c0.33-0.191,0.814,0.008,1.062-0.46
		c-0.217-0.184-0.448-0.381-0.642-0.545c0-0.376,0-0.681,0-0.987c0.313,0,0.626,0,0.928,0c0.226-0.207,0.445-0.409,0.653-0.6
		c0.242,0.215,0.47,0.417,0.712,0.631c0.412,0,0.821,0,1.188,0c0.334,0.328,0.631,0.621,0.923,0.908c0,0.322,0,0.636,0,0.949
		c-0.714,0-1.428,0-2.242,0c-0.335,0.422-0.714,0.9-1.129,1.423c-0.317-0.365-0.516-0.595-0.688-0.793
		C37.691,82.458,37.385,82.458,37.079,82.458z"/>
	<path d="M45.566,85.604c0.225,0.214,0.445,0.425,0.667,0.637c0.208,0,0.411,0,0.597,0c0.307,0.204,0.371,0.507,0.302,0.806
		c-0.039,0.166-0.222,0.422-0.346,0.425c-1.232,0.032-2.466,0.019-3.757,0.019c-0.243-0.277-0.513-0.584-0.831-0.946
		c-0.036-0.478-0.363-1.091,0.244-1.571c0.411,0,0.822,0,1.233,0c0.221,0.21,0.442,0.421,0.661,0.629
		C44.751,85.604,45.162,85.604,45.566,85.604z"/>
	<path d="M54.068,84.346c-0.308,0-0.616,0-0.925,0c-0.505-0.712-0.505-0.712,0.248-1.53c0-0.346,0-0.743,0-1.27
		c-0.109-0.126-0.347-0.325-0.483-0.578c-0.206-0.386-0.153-0.762,0.248-1.024c0.411,0,0.821,0,1.227,0
		c0.234,0.148,0.304,0.301,0.184,0.437c-0.135,0.154-0.288,0.293-0.434,0.438c0.255,0.342,0.255,0.342,0.923,0.427
		c0.291,0.291,0.581,0.581,0.882,0.882c-0.202,0.216-0.404,0.432-0.612,0.655c0,0.194,0,0.399,0,0.585
		c-0.226,0.462-0.714,0.267-1.046,0.451C54.068,83.936,53.997,84.111,54.068,84.346z"/>
	<path d="M41.483,78.054c0-0.103,0.043-0.24-0.008-0.302c-0.186-0.231-0.403-0.438-0.6-0.645c0.2-0.224,0.391-0.438,0.573-0.642
		c-0.216-0.563-1.044,0.012-1.157-0.653c0.181-0.22,0.352-0.428,0.503-0.612c-0.162-0.291-0.587-0.384-0.442-0.714
		c0.154-0.35,0.572-0.268,0.804-0.174c0.269,0.109,0.458,0.397,0.657,0.583c0.234,0,0.436,0,0.82,0
		c0.302-0.388,0.677-0.87,0.969-1.246c0.498,0,0.807,0.005,1.115-0.002c0.212-0.005,0.427,0.069,0.478,0.284
		c0.019,0.082-0.222,0.271-0.376,0.335c-0.175,0.073-0.386,0.061-0.552,0.082c-0.311,0.304-0.612,0.584-0.89,0.885
		c-0.051,0.056-0.007,0.199-0.007,0.302c-0.102,0-0.244-0.044-0.299,0.007c-0.297,0.277-0.572,0.577-0.892,0.907
		c-0.053,0.426-0.085,0.915-0.184,1.39C41.949,78.066,41.716,78.124,41.483,78.054z"/>
	<path d="M37.079,49.109c0.311,0,0.621,0,0.928,0c0.221-0.206,0.44-0.41,0.66-0.614c0.299,0.299,0.592,0.592,0.882,0.882
		c-0.164,0.643-0.985,0.087-1.201,0.837c0,0.022,0,0.226,0,0.576c-0.164,0.134-0.412,0.319-0.632,0.533
		c-0.052,0.05-0.008,0.199-0.008,0.303c-0.296,0-0.593,0-0.878,0c-0.438-0.221-0.426-0.59-0.339-0.973
		c0.203-0.219,0.401-0.432,0.588-0.634C37.079,49.702,37.079,49.406,37.079,49.109z"/>
	<path d="M39.243,86.234c-0.183,0.413-0.372,0.839-0.567,1.28c-0.674-0.618-0.215-1.375-0.344-2.072
		c0.204-0.3,0.494-0.592,0.611-0.942c0.091-0.275,0.062-0.585,0.344-0.782c0.282,0.287,0.567,0.577,0.858,0.873
		c0.018,0.556,0.366,1.173-0.251,1.643C39.689,86.234,39.485,86.234,39.243,86.234z"/>
	<path d="M39.596,46.592c-0.294,0-0.587,0-0.868,0c-0.443,0.2-0.425,0.588-0.379,1.019c-0.42,0.398-0.85,0.796-1.263,1.211
		c-0.049,0.049-0.007,0.189-0.007,0.287c-0.237,0.072-0.437,0.009-0.525-0.22c-0.069-0.18-0.072-0.385-0.105-0.579
		c0.288-0.559,0.813-0.906,1.234-1.381c-0.193-0.214-0.389-0.431-0.585-0.648c0.058-0.065,0.111-0.182,0.191-0.205
		c0.693-0.193,1.396-0.19,2.087-0.007C39.608,46.131,39.668,46.355,39.596,46.592z"/>
	<path d="M43.035,81.829c0.287,0.188,0.399,0.468,0.324,0.778c-0.043,0.177-0.175,0.359-0.317,0.481
		c-0.259,0.223-0.285,0.496-0.318,0.806c-0.016,0.151-0.21,0.284-0.317,0.417c-0.224-0.203-0.448-0.406-0.556-0.504
		c-0.418-0.122-0.693-0.203-1.2-0.351c0.647-0.449,1.143-0.793,1.461-1.014c0-0.406-0.004-0.599,0.001-0.599
		C42.422,81.828,42.731,81.829,43.035,81.829z"/>
	<path d="M38.65,41.559c0.203,0,0.405,0,0.653,0c0.179-0.2,0.379-0.425,0.586-0.657c0.305,0.312,0.586,0.6,0.882,0.903
		c-0.119,0.49-0.636,0.646-0.848,1.011c-0.468,0-0.871,0-1.274,0C38.2,42.394,38.202,41.976,38.65,41.559z"/>
	<path d="M47.776,81.829c-0.381-0.095-0.539,0.22-0.729,0.429c-0.156,0.172-0.299,0.269-0.53,0.2c0-0.306,0-0.612,0-0.973
		c0.2-0.174,0.43-0.373,0.629-0.545c0-0.262,0-0.466,0-0.67c0.615-0.456,0.617-0.455,1.293,0.009
		c-0.235,0.204-0.465,0.403-0.663,0.575C47.776,81.217,47.776,81.523,47.776,81.829z"/>
	<path d="M46.83,56.658c-0.214-0.214-0.414-0.448-0.649-0.64c-0.264-0.217-0.348-0.497-0.279-0.794
		c0.039-0.167,0.217-0.302,0.329-0.447c0.206,0,0.408,0,0.597,0c0.424,0.283,0.296,0.71,0.321,1.098
		C47.169,56.191,47.102,56.465,46.83,56.658z"/>
	<path d="M41.836,61.065c-0.49-0.582-0.486-0.584-0.053-1.247c0.193,0,0.393,0,0.626,0c0.195,0.186,0.402,0.405,0.633,0.596
		c0.195,0.162,0.295,0.296,0.228,0.434c-0.105,0.22-0.281,0.254-0.52,0.225C42.45,61.037,42.141,61.065,41.836,61.065z"/>
	<path d="M44,30.233c0.298,0,0.597,0,0.913,0c0.205-0.192,0.419-0.392,0.634-0.593c0.481,0.523,0.473,0.524,0.045,1.222
		c-0.36,0-0.751,0.007-1.142-0.003C44.206,30.853,44.084,30.671,44,30.233z"/>
	<path d="M37.079,82.458c0.062,0.218,0.014,0.433-0.188,0.49c-0.534,0.15-1.061,0.285-1.42,0.762
		c-0.035,0.046-0.184,0.006-0.28,0.006c0-0.296-0.044-0.602,0.018-0.885c0.032-0.146,0.245-0.344,0.39-0.357
		C36.089,82.431,36.585,82.458,37.079,82.458z"/>
	<path d="M38.338,52.434c-0.182,0.491-0.675,0.674-0.892,1.08c-0.454-0.265-0.342-0.602-0.373-0.909
		c0.21-0.22,0.433-0.434,0.633-0.668c0.34-0.398,0.396-0.418,0.529-0.088C38.307,52.028,38.306,52.237,38.338,52.434z"/>
	<path d="M49.663,81.213c0-0.311,0-0.61,0-0.908c0.139-0.121,0.268-0.327,0.42-0.347c0.388-0.05,0.786-0.017,1.157-0.017
		c0.265,0.312,0.238,0.576-0.049,0.623c-0.193,0.032-0.395,0.006-0.57,0.006C50.29,80.79,50.152,81.259,49.663,81.213z"/>
	<path d="M41.483,78.388c0.195,0.176,0.412,0.372,0.632,0.569c-0.159,0.131-0.28,0.307-0.433,0.343
		c-0.558,0.131-0.952-0.259-0.817-0.808c0.04-0.163,0.198-0.31,0.332-0.431c0.054-0.049,0.227-0.046,0.276,0.003
		C41.522,78.113,41.483,78.249,41.483,78.388z"/>
	<path d="M49.663,23.61c-0.069,0.074-0.126,0.165-0.209,0.218c-0.139,0.088-0.287,0.004-0.421-0.218c0-0.409,0-0.818,0-1.228
		c0.134-0.222,0.281-0.306,0.421-0.218c0.082,0.052,0.196,0.141,0.199,0.218C49.674,22.792,49.663,23.201,49.663,23.61z"/>
	<path d="M49.045,28.974c-0.39-0.003-0.646-0.198-0.539-0.414c0.108-0.218,0.283-0.279,0.518-0.219
		c0.095,0.024,0.218-0.029,0.3,0.01c0.225,0.109,0.311,0.267,0.235,0.405c-0.046,0.085-0.127,0.174-0.213,0.21
		C49.259,29.002,49.146,28.974,49.045,28.974z"/>
	<path d="M37.608,41.973c-0.145,0.32-0.831,0.335-1.04,0.013c-0.034-0.053-0.04-0.151-0.015-0.21
		c0.136-0.324,0.827-0.337,1.035-0.014C37.623,41.814,37.603,41.901,37.608,41.973z"/>
	<path d="M35.191,52.256c0,0.293,0.037,0.593-0.017,0.876c-0.024,0.127-0.253,0.328-0.347,0.307
		c-0.205-0.046-0.292-0.256-0.263-0.455c0.026-0.181,0.054-0.368,0.126-0.533C34.78,52.247,34.969,52.192,35.191,52.256z"/>
	<path d="M50.292,88.75c0-0.21,0-0.419,0-0.629c0.309,0,0.629-0.051,0.922,0.016c0.241,0.055,0.312,0.265,0.223,0.405
		c-0.052,0.083-0.141,0.193-0.22,0.199C50.911,88.764,50.601,88.75,50.292,88.75z"/>
	<path d="M54.068,84.346c0.628,0.13,0.743,0.321,0.569,0.996c-0.021,0.081-0.121,0.164-0.205,0.199
		c-0.047,0.02-0.146-0.044-0.2-0.094c-0.067-0.061-0.152-0.145-0.157-0.223C54.057,84.932,54.068,84.639,54.068,84.346z"/>
	<path d="M55.641,80.572c-0.452-0.421-0.452-0.84,0-1.261C56.093,79.732,56.093,80.151,55.641,80.572z"/>
	<path d="M45.259,80.885c-0.14,0.21-0.285,0.289-0.417,0.206c-0.082-0.051-0.214-0.176-0.201-0.2
		c0.121-0.22,0.274-0.295,0.406-0.212C45.128,80.73,45.189,80.815,45.259,80.885z"/>
	<path d="M49.034,81.829c0.082-0.502,0.127-0.547,0.629-0.629c0,0.21,0,0.419,0,0.629C49.454,81.829,49.244,81.829,49.034,81.829z"
		/>
	<path d="M49.663,81.829c0.452,0.059,0.631,0.202,0.52,0.421c-0.107,0.212-0.289,0.277-0.52,0.208
		C49.663,82.248,49.663,82.039,49.663,81.829z"/>
	<path d="M46.511,82.737c-0.028,0.08-0.102,0.151-0.17,0.207c-0.053,0.043-0.151,0.1-0.192,0.079
		c-0.233-0.118-0.252-0.244-0.124-0.394c0.135-0.157,0.287-0.24,0.489-0.159C46.545,82.482,46.54,82.653,46.511,82.737z"/>
	<path d="M37.43,79.935c-0.08-0.028-0.151-0.102-0.207-0.17c-0.043-0.053-0.1-0.151-0.078-0.192
		c0.118-0.233,0.244-0.252,0.394-0.124c0.158,0.134,0.24,0.287,0.159,0.489C37.684,79.969,37.513,79.964,37.43,79.935z"/>
	<path d="M35.185,83.995c-0.028,0.08-0.102,0.151-0.17,0.207c-0.053,0.043-0.151,0.1-0.192,0.079
		c-0.233-0.118-0.252-0.244-0.124-0.394c0.134-0.158,0.287-0.24,0.489-0.159C35.219,83.741,35.214,83.912,35.185,83.995z"/>
	<path d="M51.446,86.653c-0.07,0.07-0.179,0.212-0.204,0.198c-0.22-0.121-0.295-0.274-0.212-0.406
		c0.051-0.082,0.176-0.214,0.2-0.201C51.45,86.365,51.516,86.513,51.446,86.653z"/>
	<path d="M59.416,87.492c0.21,0.14,0.289,0.286,0.206,0.417c-0.051,0.082-0.176,0.214-0.2,0.201
		c-0.22-0.121-0.295-0.274-0.212-0.406C59.261,87.622,59.346,87.562,59.416,87.492z"/>
	<path d="M50.286,89.029c-0.028,0.08-0.102,0.151-0.17,0.207c-0.053,0.043-0.151,0.1-0.192,0.079
		c-0.233-0.118-0.252-0.244-0.124-0.394c0.134-0.158,0.287-0.24,0.489-0.159C50.32,88.775,50.315,88.945,50.286,89.029z"/>
	<path d="M46.832,77.424c0.21,0.14,0.289,0.285,0.206,0.417c-0.051,0.082-0.176,0.214-0.2,0.201
		c-0.22-0.121-0.295-0.274-0.212-0.406C46.677,77.555,46.762,77.494,46.832,77.424z"/>
	<path d="M47.042,76.585c-0.07,0.07-0.179,0.212-0.204,0.199c-0.22-0.121-0.295-0.274-0.212-0.406
		c0.051-0.082,0.176-0.214,0.2-0.201C47.046,76.298,47.111,76.446,47.042,76.585z"/>
	<path d="M43.931,75.916c0.013,0.023-0.158,0.194-0.181,0.181c-0.137-0.074-0.306-0.157-0.368-0.285
		c-0.129-0.263,0.001-0.394,0.265-0.265C43.774,75.61,43.857,75.779,43.931,75.916z"/>
	<path d="M48.3,75.117c0.07,0.14,0.004,0.288-0.216,0.408c-0.024,0.013-0.149-0.119-0.2-0.201c-0.083-0.132-0.008-0.286,0.212-0.406
		C48.121,74.905,48.23,75.047,48.3,75.117z"/>
	<path d="M41.378,71.342c0.07,0.14,0.004,0.288-0.216,0.408c-0.024,0.013-0.149-0.119-0.2-0.201
		c-0.083-0.132-0.008-0.285,0.212-0.406C41.199,71.13,41.309,71.272,41.378,71.342z"/>
	<path d="M35.296,60.855c-0.07-0.14-0.004-0.288,0.216-0.408c0.024-0.013,0.149,0.119,0.2,0.201
		c0.083,0.132,0.008,0.285-0.212,0.406C35.475,61.067,35.366,60.925,35.296,60.855z"/>
	<path d="M43.581,55.297c-0.07-0.07-0.212-0.179-0.198-0.204c0.121-0.22,0.274-0.295,0.406-0.212c0.082,0.051,0.214,0.176,0.201,0.2
		C43.868,55.301,43.721,55.367,43.581,55.297z"/>
	<path d="M36.345,55.192c-0.07,0.07-0.179,0.212-0.204,0.198c-0.22-0.121-0.295-0.274-0.212-0.406
		c0.051-0.082,0.176-0.214,0.2-0.201C36.349,54.904,36.415,55.052,36.345,55.192z"/>
	<path d="M35.57,51.696c0.023-0.013,0.194,0.158,0.181,0.181c-0.074,0.137-0.158,0.306-0.285,0.368
		c-0.263,0.129-0.394-0.001-0.265-0.265C35.264,51.853,35.433,51.77,35.57,51.696z"/>
	<path d="M40.156,46.971c0.013,0.024-0.158,0.194-0.181,0.181c-0.137-0.074-0.306-0.157-0.368-0.285
		c-0.129-0.263,0.001-0.394,0.265-0.265C39.998,46.666,40.082,46.835,40.156,46.971z"/>
	<path d="M39.805,43.971c-0.07-0.07-0.212-0.179-0.198-0.204c0.121-0.22,0.274-0.295,0.406-0.212c0.082,0.051,0.214,0.176,0.201,0.2
		C40.093,43.975,39.945,44.041,39.805,43.971z"/>
	<path d="M43.161,30.967c0.07,0.07,0.212,0.179,0.198,0.204c-0.121,0.22-0.274,0.295-0.406,0.212
		c-0.082-0.051-0.214-0.176-0.201-0.2C42.874,30.962,43.021,30.897,43.161,30.967z"/>
	<path d="M43.722,30.226c-0.08-0.028-0.151-0.102-0.207-0.17c-0.043-0.053-0.1-0.151-0.078-0.192
		c0.118-0.233,0.244-0.252,0.394-0.124c0.158,0.134,0.24,0.287,0.159,0.489C43.976,30.26,43.805,30.255,43.722,30.226z"/>
	<path d="M38.966,28.66c-0.14,0.21-0.286,0.289-0.417,0.206c-0.082-0.051-0.214-0.176-0.201-0.2c0.121-0.22,0.274-0.295,0.406-0.212
		C38.836,28.505,38.897,28.59,38.966,28.66z"/>
	<path d="M44.21,28.24c-0.07-0.07-0.212-0.179-0.198-0.204c0.121-0.22,0.274-0.295,0.406-0.212c0.082,0.051,0.214,0.176,0.201,0.2
		C44.498,28.244,44.35,28.31,44.21,28.24z"/>
	<path d="M40.33,28.135c-0.07-0.14-0.004-0.288,0.216-0.408c0.024-0.013,0.149,0.119,0.2,0.201c0.083,0.132,0.008,0.285-0.212,0.406
		C40.509,28.347,40.4,28.205,40.33,28.135z"/>
	<path d="M38.442,27.506c-0.07-0.14-0.004-0.288,0.216-0.408c0.024-0.013,0.149,0.119,0.2,0.201
		c0.083,0.132,0.008,0.286-0.212,0.406C38.621,27.718,38.512,27.576,38.442,27.506z"/>
</g>
</svg>
