<?xml version="1.0" encoding="utf-8"?>
<!-- Generator: Adobe Illustrator 25.2.1, SVG Export Plug-In . SVG Version: 6.00 Build 0)  -->
<svg version="1.1" id="Layer_1" xmlns="http://www.w3.org/2000/svg" xmlns:xlink="http://www.w3.org/1999/xlink" x="0px" y="0px"
	 viewBox="0 0 104 104" style="enable-background:new 0 0 104 104;" xml:space="preserve">
<style type="text/css">
	.st0{fill:none;stroke:#000000;stroke-width:2;stroke-linecap:round;stroke-linejoin:round;stroke-miterlimit:10;}
	.st1{fill:none;stroke:#FFFFFF;stroke-width:2;stroke-linecap:round;stroke-linejoin:round;stroke-miterlimit:10;}
	.st2{stroke:#000000;stroke-width:2;stroke-linecap:round;stroke-linejoin:round;stroke-miterlimit:10;}
	.st3{fill:none;stroke:#000000;stroke-width:2;stroke-linecap:round;stroke-linejoin:round;}
	.st4{fill:none;stroke:#000000;stroke-width:2;stroke-linecap:round;stroke-linejoin:round;stroke-dasharray:4.6467,4.6467;}
	.st5{fill:none;stroke:#000000;stroke-width:2;stroke-linecap:round;stroke-linejoin:round;stroke-dasharray:6.072,6.072;}
	.st6{fill:#FFFFFF;stroke:#000000;stroke-width:2;stroke-linecap:round;stroke-linejoin:round;stroke-miterlimit:10;}
</style>
<g>
	
		<rect x="16.525" y="28.653" transform="matrix(0.9397 -0.342 0.342 0.9397 -14.1665 15.0395)" class="st0" width="38.077" height="38.077"/>
	<polyline class="st0" points="54.31,43.548 56.59,37.288 92.37,50.308 79.34,86.088 43.56,73.068 46.93,63.808 	"/>
	<g>
		<circle cx="35.574" cy="47.691" r="10.853"/>
		<g>
			<path class="st1" d="M33.712,52.635l4.541-1.653c1.061-0.386,1.618-1.547,1.24-2.584c-0.378-1.038-1.55-1.569-2.611-1.182
				l-2.594,0.944c-1.061,0.386-2.234-0.145-2.611-1.182c-0.378-1.038,0.179-2.198,1.24-2.584l3.812-1.388"/>
			<line class="st1" x1="33.344" y1="41.53" x2="34.214" y2="43.92"/>
			<line class="st1" x1="36.956" y1="51.454" x2="37.826" y2="53.844"/>
		</g>
	</g>
	<path class="st0" d="M61.784,53.179c13.303-1.119,20.129-0.861,20.477,0.776c0.599,2.814-25.044,9.788-24.665,11.169
		c0.307,1.119,20.771-2.67,22.259,0.604c0.786,1.728-4.958,4.846-10.624,7.152"/>
	<circle class="st0" cx="67.18" cy="28.251" r="6.099"/>
	<circle class="st0" cx="35.585" cy="83.351" r="5.442"/>
	<circle cx="51.136" cy="84.676" r="3.175"/>
	<line class="st0" x1="70.082" y1="12.286" x2="69.728" y2="17.732"/>
	<line class="st0" x1="57.157" y1="15.015" x2="60.398" y2="19.407"/>
	<line class="st0" x1="82.271" y1="20.269" x2="77.411" y2="22.751"/>
	<line class="st0" x1="83.386" y1="32.124" x2="78.054" y2="30.957"/>
	<g>
		<path d="M20.58,38.901c0.139,0.316,0.139,0.629,0.139,0.961c-0.066,0.062-0.133,0.18-0.219,0.196
			c-0.908,0.17-1.819,0.125-2.678,0.046c-0.116-0.134-0.236-0.208-0.24-0.288c-0.019-0.414-0.009-0.829-0.009-1.31
			c-0.359-0.124-0.774-0.179-1.072-0.395c-0.294-0.213-0.648-0.444-0.737-0.86c0.374-0.374,0.743-0.743,1.146-1.146
			c0-0.373,0-0.781,0-1.193c0.213-0.243,0.414-0.472,0.629-0.717c0.009-0.073,0.022-0.172,0.034-0.271
			c0.057-0.459,0.171-0.662,0.439-0.677c0.195-0.011,0.45-0.018,0.579,0.09c0.398,0.334,0.748,0.725,1.119,1.096
			c0.57-0.255,0.823-0.865,1.447-1.194c0.088,0,0.297,0,0.505,0c0.074,0.074,0.195,0.137,0.214,0.223
			c0.157,0.7,0.189,1.402-0.041,2.181c-0.251,0.051-0.537,0.109-0.867,0.177c-0.035,0.035-0.16,0.101-0.173,0.184
			c-0.046,0.3-0.071,0.606-0.073,0.91c-0.005,0.628,0.168,0.74,0.994,0.675c0.778-0.757,0.788-0.749,1.634-0.187
			c-0.467,0.443-0.913,0.867-1.309,1.243c-0.102,0.321-0.189,0.597-0.275,0.866C21.327,39.373,21.229,38.801,20.58,38.901
			c-0.056,0.026,0.115,0.031,0.128-0.001c0.08-0.202-0.002-0.354-0.159-0.489c-0.15-0.128-0.276-0.109-0.394,0.124
			c-0.021,0.042,0.035,0.139,0.079,0.192C20.29,38.796,20.361,38.87,20.58,38.901z M18.726,34.919
			c0.07-0.14,0.004-0.287-0.216-0.408c-0.024-0.013-0.149,0.119-0.2,0.201c-0.083,0.132-0.008,0.285,0.212,0.406
			C18.547,35.131,18.657,34.989,18.726,34.919z"/>
		<path d="M64.765,79.174c-0.731,0-1.463,0-2.263,0c-0.096-0.245-0.202-0.513-0.292-0.742c0.404-0.699,1.011-1.118,1.49-1.653
			c0.699-0.212,1.401-0.174,2.113-0.024c0.408,0.322,0.131,0.775,0.211,1.162c-0.292,0-0.583,0-0.875,0
			c-0.128,0.128-0.335,0.239-0.367,0.388C64.722,78.582,64.765,78.883,64.765,79.174z"/>
		<path d="M70.428,79.501c-0.217-0.232-0.428-0.458-0.63-0.675c0.013-0.223,0.026-0.428,0.038-0.635
			c0.404-0.517,0.981-0.13,1.395-0.303c0.851,0.398,0.236,1.165,0.529,1.675c0.733,0.795,0.733,0.795,0.209,1.509
			c-0.201,0-0.408,0-0.588,0c-0.247,0.223-0.475,0.43-0.738,0.668c-0.271-0.084-0.549-0.169-0.884-0.272
			c0.262-0.287,0.462-0.507,0.67-0.734C70.428,80.328,70.428,79.909,70.428,79.501z"/>
		<path d="M78.305,81.691c-0.232,0.217-0.459,0.428-0.675,0.631c-0.223-0.014-0.428-0.026-0.632-0.038
			c-0.63-0.624-0.008-1.414-0.369-2.038c0.35-0.368,0.634-0.667,0.913-0.96c0.084,0,0.193-0.032,0.227,0.005
			c0.492,0.528,1.092,0.956,1.468,1.585C79.107,81.683,79.107,81.683,78.305,81.691z"/>
		<path d="M68.48,76.028c0.37,0,0.68,0,1.032,0c0.189-0.414,0.386-0.845,0.573-1.256c0.251,0,0.457,0,0.653,0
			c0.293,0.2,0.264,0.509,0.341,0.798c0.071,0.267,0.334,0.484,0.529,0.746c-0.19,0.425-0.61,0.675-0.876,0.935
			c-0.513,0-0.916,0-1.305,0C69.121,76.821,68.584,76.606,68.48,76.028z"/>
		<path d="M74.518,78.545c-0.21,0-0.419,0-0.629,0c-0.105-0.166-0.272-0.322-0.301-0.5c-0.05-0.306,0.032-0.635-0.026-0.938
			c-0.063-0.324-0.301-0.513-0.668-0.449c-0.225,0.039-0.418-0.04-0.516-0.261c-0.081-0.182,0.26-0.376,0.671-0.367
			c0.305,0.007,0.61,0.027,0.881,0.04c0.18,0.18,0.328,0.328,0.48,0.48c0.384,0.205,0.809,0.041,1.204,0.121
			c0.168,0.034,0.307,0.208,0.46,0.319C75.555,77.508,75.036,78.027,74.518,78.545z"/>
		<path d="M20.719,44.567c0.072-0.237-0.001-0.412-0.217-0.532c-0.325-0.181-0.815,0.029-1.014-0.439
			c0.288-0.288,0.581-0.581,0.892-0.892c0.216,0.195,0.432,0.39,0.665,0.599c0.183,0,0.388,0,0.589,0
			c0.48,0.622,0.48,0.625,0.018,1.264C21.341,44.567,21.03,44.567,20.719,44.567z"/>
		<path d="M74.832,81.683c0.648-0.038,0.725,0.69,1.258,0.834c0,0.356,0.002,0.658,0,0.961c-0.005,0.553-0.172,0.728-0.699,0.731
			c-0.306,0.002-0.611,0-0.841,0c-0.335-0.189-0.387-0.377-0.175-0.474c0.347-0.158,0.72-0.258,1.124-0.396
			c-0.257-0.277-0.46-0.496-0.667-0.719C74.832,82.314,74.832,82.003,74.832,81.683z"/>
		<path d="M52.18,70.365c0,0.298,0,0.597,0,0.914c0.192,0.205,0.392,0.419,0.593,0.634c-0.523,0.481-0.524,0.473-1.222,0.045
			c0-0.36-0.007-0.751,0.003-1.142C51.56,70.571,51.741,70.449,52.18,70.365z"/>
		<path d="M64.765,79.172c0.621-0.003,0.775,0.623,1.199,0.886c0.068,0.373,0.202,0.767-0.308,0.94
			c-0.303-0.297-0.6-0.588-0.892-0.873C64.765,79.8,64.765,79.487,64.765,79.172z"/>
		<path d="M68.54,76.028c-0.294,0-0.587,0-0.881,0c-0.51-0.502-0.505-0.562-0.143-1.179C68.321,75.465,68.325,75.461,68.54,76.028z"
			/>
		<path d="M66.649,74.455c-0.193,0.274-0.469,0.335-0.787,0.317c-0.392-0.022-0.819,0.095-1.092-0.317
			c0.272-0.412,0.7-0.295,1.092-0.317C66.179,74.121,66.456,74.181,66.649,74.455z"/>
		<path d="M66.023,77.916c0.294,0,0.594-0.037,0.878,0.016c0.128,0.024,0.222,0.226,0.331,0.347
			c-0.284,0.284-0.561,0.561-0.839,0.839c-0.124-0.107-0.33-0.199-0.354-0.325C65.986,78.51,66.023,78.21,66.023,77.916z"/>
		<path d="M79.877,77.916c0.232-0.072,0.409-0.002,0.517,0.215c0.107,0.215-0.149,0.411-0.539,0.414
			c-0.101,0.001-0.214,0.028-0.301-0.008c-0.086-0.036-0.167-0.124-0.213-0.21c-0.076-0.139,0.01-0.296,0.235-0.405
			C79.658,77.882,79.776,77.916,79.877,77.916z"/>
		<path d="M81.126,76.972c-0.421,0.452-0.84,0.452-1.261,0C80.285,76.52,80.705,76.52,81.126,76.972z"/>
		<path d="M55.956,74.77c-0.13,0.628-0.322,0.743-0.996,0.569c-0.081-0.021-0.164-0.121-0.199-0.205
			c-0.02-0.047,0.044-0.146,0.094-0.2c0.061-0.067,0.145-0.152,0.223-0.157C55.369,74.758,55.663,74.77,55.956,74.77z"/>
		<path d="M52.71,73.297c-0.146,0.314-0.829,0.326-1.039,0.013c-0.035-0.052-0.04-0.152-0.015-0.21
			c0.137-0.318,0.825-0.328,1.035-0.014C52.725,73.136,52.705,73.225,52.71,73.297z"/>
		<path d="M74.834,72.568c-0.421,0.452-0.84,0.452-1.261,0C73.993,72.116,74.413,72.116,74.834,72.568z"/>
		<path d="M71.068,71.624c-0.39-0.003-0.646-0.198-0.539-0.414c0.108-0.218,0.283-0.279,0.518-0.219
			c0.095,0.024,0.218-0.029,0.3,0.01c0.225,0.109,0.311,0.266,0.235,0.405c-0.046,0.085-0.127,0.174-0.213,0.21
			C71.282,71.652,71.169,71.624,71.068,71.624z"/>
		<path d="M81.025,63.659c-0.005,0.072,0.015,0.16-0.02,0.212c-0.21,0.314-0.898,0.303-1.035-0.014
			c-0.025-0.059-0.018-0.157,0.016-0.209c0.053-0.08,0.135-0.183,0.217-0.194c0.199-0.028,0.407-0.029,0.605,0.001
			C80.889,63.466,80.953,63.587,81.025,63.659z"/>
		<path d="M81.135,60.927c0.232-0.072,0.409-0.002,0.518,0.215c0.107,0.215-0.149,0.411-0.539,0.414
			c-0.101,0.001-0.214,0.028-0.301-0.008c-0.086-0.036-0.167-0.124-0.213-0.209c-0.076-0.139,0.01-0.296,0.235-0.405
			C80.916,60.894,81.034,60.927,81.135,60.927z"/>
		<path d="M22.607,42.061c0.072,0.232,0.002,0.409-0.215,0.517c-0.215,0.107-0.411-0.149-0.414-0.539
			c-0.001-0.101-0.028-0.214,0.008-0.301c0.036-0.086,0.124-0.167,0.21-0.213c0.139-0.076,0.296,0.01,0.405,0.235
			C22.64,41.842,22.607,41.96,22.607,42.061z"/>
		<path d="M25.858,31.773c-0.07-0.14-0.004-0.288,0.216-0.408c0.024-0.013,0.149,0.119,0.2,0.201
			c0.083,0.132,0.008,0.285-0.212,0.406C26.037,31.985,25.927,31.843,25.858,31.773z"/>
		<path d="M51.236,31.983c0.21,0.14,0.289,0.286,0.206,0.417c-0.051,0.082-0.176,0.214-0.2,0.201
			c-0.22-0.121-0.295-0.274-0.212-0.406C51.081,32.113,51.166,32.052,51.236,31.983z"/>
		<path d="M48.929,33.661c-0.07,0.07-0.179,0.212-0.204,0.198c-0.22-0.121-0.295-0.274-0.212-0.406
			c0.051-0.082,0.176-0.214,0.2-0.201C48.934,33.373,48.999,33.521,48.929,33.661z"/>
		<path d="M25.019,34.08c0.07,0.14,0.004,0.288-0.216,0.408c-0.024,0.013-0.149-0.119-0.2-0.201
			c-0.083-0.132-0.008-0.285,0.212-0.406C24.839,33.868,24.949,34.01,25.019,34.08z"/>
		<path d="M15.475,35.024c-0.14,0.07-0.288,0.004-0.408-0.216c-0.013-0.024,0.119-0.149,0.201-0.2
			c0.132-0.083,0.285-0.008,0.406,0.212C15.687,34.844,15.545,34.954,15.475,35.024z"/>
		<path d="M46.412,36.177c-0.07,0.07-0.179,0.212-0.204,0.198c-0.22-0.121-0.295-0.274-0.212-0.406
			c0.051-0.082,0.176-0.214,0.2-0.201C46.417,35.89,46.482,36.038,46.412,36.177z"/>
		<path d="M14.741,36.387c0.21,0.14,0.289,0.286,0.206,0.417c-0.051,0.082-0.176,0.214-0.2,0.201
			c-0.22-0.121-0.295-0.274-0.212-0.406C14.586,36.517,14.671,36.457,14.741,36.387z"/>
		<path d="M20.712,44.845c-0.028,0.08-0.102,0.151-0.17,0.208c-0.053,0.043-0.151,0.099-0.192,0.078
			c-0.233-0.118-0.252-0.244-0.124-0.394c0.135-0.158,0.287-0.24,0.489-0.159C20.747,44.591,20.742,44.762,20.712,44.845z"/>
		<path d="M21.873,46.035c0.07,0.14,0.004,0.288-0.216,0.408c-0.024,0.013-0.149-0.119-0.2-0.201
			c-0.083-0.132-0.008-0.285,0.212-0.406C21.693,45.823,21.803,45.965,21.873,46.035z"/>
		<path d="M20.404,46.455c0.21,0.14,0.289,0.285,0.206,0.417c-0.051,0.082-0.176,0.214-0.2,0.201
			c-0.22-0.121-0.295-0.274-0.212-0.406C20.249,46.585,20.335,46.525,20.404,46.455z"/>
		<path d="M81.02,62.605c-0.07,0.07-0.179,0.212-0.204,0.198c-0.22-0.121-0.295-0.274-0.212-0.406
			c0.051-0.082,0.176-0.214,0.2-0.201C81.024,62.317,81.089,62.465,81.02,62.605z"/>
		<path d="M52.559,69.805c0.024-0.013,0.194,0.158,0.181,0.181c-0.074,0.137-0.157,0.306-0.285,0.368
			c-0.263,0.129-0.394-0.001-0.265-0.265C52.253,69.963,52.422,69.879,52.559,69.805z"/>
		<path d="M68.435,73.721c0.07,0.14,0.004,0.287-0.216,0.408c-0.024,0.013-0.149-0.119-0.2-0.201
			c-0.083-0.132-0.008-0.285,0.212-0.406C68.256,73.509,68.365,73.651,68.435,73.721z"/>
		<path d="M56.334,74.21c0.024-0.013,0.194,0.158,0.181,0.181c-0.074,0.137-0.158,0.306-0.285,0.368
			c-0.263,0.129-0.394-0.001-0.265-0.265C56.029,74.367,56.198,74.284,56.334,74.21z"/>
		<path d="M59.626,74.979c0.07,0.14,0.004,0.288-0.216,0.408c-0.024,0.013-0.149-0.119-0.2-0.201
			c-0.083-0.132-0.008-0.285,0.212-0.406C59.447,74.768,59.556,74.91,59.626,74.979z"/>
		<path d="M76.195,75.189c-0.07-0.14-0.004-0.288,0.216-0.408c0.024-0.013,0.149,0.119,0.2,0.201
			c0.083,0.132,0.008,0.285-0.212,0.406C76.375,75.401,76.265,75.259,76.195,75.189z"/>
		<path d="M81.02,75.819c-0.07,0.07-0.179,0.212-0.204,0.198c-0.22-0.121-0.295-0.274-0.212-0.406
			c0.051-0.082,0.176-0.214,0.2-0.201C81.024,75.531,81.089,75.679,81.02,75.819z"/>
		<path d="M58.263,77.182c-0.14,0.07-0.288,0.004-0.408-0.216c-0.013-0.024,0.119-0.149,0.201-0.2
			c0.132-0.083,0.286-0.008,0.406,0.213C58.474,77.003,58.333,77.112,58.263,77.182z"/>
		<path d="M67.806,77.077c-0.07,0.07-0.179,0.212-0.204,0.198c-0.22-0.121-0.295-0.274-0.212-0.406
			c0.051-0.082,0.176-0.214,0.2-0.201C67.81,76.789,67.876,76.937,67.806,77.077z"/>
		<path d="M68.855,77.916c0.21,0.14,0.289,0.285,0.206,0.417c-0.051,0.082-0.176,0.214-0.2,0.201
			c-0.22-0.121-0.295-0.274-0.212-0.406C68.7,78.046,68.785,77.986,68.855,77.916z"/>
		<path d="M74.554,81.685c-0.08-0.028-0.151-0.102-0.207-0.171c-0.043-0.053-0.099-0.151-0.078-0.192
			c0.118-0.233,0.244-0.252,0.394-0.124c0.158,0.134,0.24,0.287,0.159,0.489C74.808,81.719,74.637,81.714,74.554,81.685z"/>
	</g>
</g>
</svg>
