<?xml version="1.0" encoding="utf-8"?>
<!-- Generator: Adobe Illustrator 25.2.1, SVG Export Plug-In . SVG Version: 6.00 Build 0)  -->
<svg version="1.1" id="Layer_1" xmlns="http://www.w3.org/2000/svg" xmlns:xlink="http://www.w3.org/1999/xlink" x="0px" y="0px"
	 viewBox="0 0 104 104" style="enable-background:new 0 0 104 104;" xml:space="preserve">
<style type="text/css">
	.st0{fill:none;stroke:#000000;stroke-width:2;stroke-linecap:round;stroke-linejoin:round;stroke-miterlimit:10;}
	.st1{fill:none;stroke:#FFFFFF;stroke-width:2;stroke-linecap:round;stroke-linejoin:round;stroke-miterlimit:10;}
	.st2{stroke:#000000;stroke-width:2;stroke-linecap:round;stroke-linejoin:round;stroke-miterlimit:10;}
	.st3{fill:none;stroke:#000000;stroke-width:2;stroke-linecap:round;stroke-linejoin:round;}
	.st4{fill:none;stroke:#000000;stroke-width:2;stroke-linecap:round;stroke-linejoin:round;stroke-dasharray:4.6467,4.6467;}
	.st5{fill:none;stroke:#000000;stroke-width:2;stroke-linecap:round;stroke-linejoin:round;stroke-dasharray:6.072,6.072;}
	.st6{fill:#FFFFFF;stroke:#000000;stroke-width:2;stroke-linecap:round;stroke-linejoin:round;stroke-miterlimit:10;}
</style>
<g>
	<g>
		<circle cx="52.24" cy="45.359" r="10.15"/>
		<g>
			<path class="st1" d="M49.022,49.108h4.519c1.056,0,1.917-0.842,1.917-1.875c0-1.033-0.861-1.875-1.917-1.875H50.96
				c-1.056,0-1.917-0.842-1.917-1.875c0-1.033,0.861-1.875,1.917-1.875h3.794"/>
			<line class="st1" x1="52.25" y1="39.232" x2="52.25" y2="41.61"/>
			<line class="st1" x1="52.25" y1="49.108" x2="52.25" y2="51.487"/>
		</g>
	</g>
	<path class="st0" d="M60.103,27.101h-16.58h-17.31l3.39,23.9c0.22,1.58,0.72,3.07,1.44,4.41c2.25,4.17,6.65,6.93,11.63,6.93h5.67
		h7.79h5c6.43,0,11.93-4.64,13.01-10.98l4.13-24.26h-8.09"/>
	<polyline class="st0" points="56.133,62.341 57.523,89.001 46.953,89.001 48.343,62.341 	"/>
	<line class="st0" x1="25.821" y1="89.001" x2="78.659" y2="89.001"/>
	<path class="st0" d="M44.933,32.091c-0.19-1.74-0.68-3.42-1.41-4.99c-2.13-4.55-6.31-8.09-11.35-9.03
		c-6.9-1.3-13.78,3.82-17.13,9.52c-4,6.83-5.22,17.05,0.35,23.36c4.62,5.22,10.08,5.8,15.65,4.46"/>
	<path class="st0" d="M42.09,89.001c-0.36-0.68-3.544-4.445-3.998-6.711c-0.53-1.81,0.2-4.359,1.64-5.589
		c0.91-0.78,2.15-1.08,3.34-1.28c1.48-0.26,2.97-0.42,4.47-0.54c3.11-0.26,6.25-0.31,9.36-0.52c4.9-0.34,9.7-1.08,14.09-3.64
		c7.47-4.35,10.52-14.06,4.46-21.03c-0.28-0.32-0.57-0.62-0.87-0.91"/>
	<path class="st0" d="M81.417,64.705c0,0,8.654,5.962,13.071,0.982C94.488,65.687,88.441,57.94,81.417,64.705z"/>
	<path class="st0" d="M20.768,50.457c0,0,5.23-6.083-0.259-10.196C20.509,40.261,14.982,45.547,20.768,50.457z"/>
	<path class="st0" d="M88.615,77.972c0,0-3.429-9.934-9.94-8.545C78.676,69.427,78.947,79.251,88.615,77.972z"/>
	<path class="st0" d="M9.512,64.723c0,0,11.447,1.324,13.164-5.771C22.676,58.952,12.836,54.558,9.512,64.723z"/>
	<circle class="st2" cx="65.138" cy="27.135" r="5.04"/>
	<circle class="st0" cx="52.238" cy="18.547" r="3.548"/>
	<g>
		<path d="M39.658,33.252c-0.31,0-0.619,0-0.929,0c-0.11,0.158-0.298,0.31-0.312,0.476c-0.026,0.316-0.064,0.594-0.351,0.783
			c-0.305,0-0.614,0-0.622-0.464c0.171-0.571,0.052-0.734-0.103-0.783c-0.306-0.098-0.688,0.052-0.772,0.247
			c-0.153,0.36-0.052,0.755,0.284,0.994c0.065,0.046,0.191,0.007,0.289,0.007c-0.078-0.493,0.408-0.614,0.302-0.464
			c-0.302,0.674-0.302,0.883-0.302,1.093c-0.502,0.082-0.547,0.127-0.629,0.629c-0.104,0-0.242,0.043-0.306-0.008
			c-0.232-0.184-0.439-0.4-0.656-0.604c-0.307,0.307-0.601,0.601-0.91,0.91c0.417,0.438,0.833,0.876,1.23,1.293
			c0,0.441,0,0.854,0,1.253c-0.086,0.086-0.155,0.218-0.234,0.224c-0.613,0.049-1.227,0.073-1.856,0.106
			c-0.234-0.203-0.463-0.4-0.76-0.658c-0.33,0-0.742,0.029-1.146-0.017c-0.123-0.014-0.223-0.234-0.327-0.352
			c0.149-0.241,0.509-0.329,0.449-0.676c-0.014-0.081-0.141-0.142-0.216-0.212c-0.52,0-1.04,0-1.559,0c0-0.524,0-1.049,0-1.561
			c0.217-0.233,0.428-0.459,0.629-0.675c0-0.125,0.011-0.232-0.002-0.335c-0.029-0.226,0.042-0.447,0.268-0.498
			c0.09-0.021,0.327,0.21,0.346,0.347c0.042,0.307,0.016,0.617,0.346,0.834c0.702,0,1.434,0,2.166,0c0.467,0,0.465-0.001,0.654-0.79
			c0.022-0.093,0.074-0.179,0.105-0.252c0.225-0.341,0.574-0.168,0.863-0.243c0.256-0.283,0.256-0.283-0.309-0.885
			c-0.011-0.205-0.021-0.411-0.033-0.629c-0.202-0.218-0.411-0.443-0.62-0.669c0.165-0.101,0.327-0.279,0.501-0.292
			c0.521-0.039,1.048-0.01,1.572-0.016c0.251-0.003,0.443-0.306,0.437-0.69c-0.004-0.21,0.004-0.42-0.003-0.629
			c-0.003-0.099-0.028-0.198-0.042-0.296c-0.297-0.297-0.593-0.593-0.89-0.89c-0.226,0.207-0.453,0.413-0.694,0.634
			c-0.401,0-0.816,0-1.216,0c-0.528,0.417-0.205,0.984-0.313,1.517c-0.176,0.197-0.38,0.426-0.619,0.694
			c0,0.473-0.02,0.995,0.009,1.514c0.013,0.24-0.007,0.422-0.206,0.547c-0.146,0.091-0.282,0.007-0.448-0.206
			c-0.179-0.229-0.389-0.433-0.582-0.644c0.186-0.247,0.583-0.387,0.488-0.687c-0.121-0.382-0.536-0.194-0.819-0.233
			c-0.232,0.217-0.459,0.428-0.676,0.631c-0.222-0.013-0.427-0.024-0.632-0.036c-0.297-0.297-0.593-0.593-0.89-0.89
			c0.203-0.225,0.407-0.45,0.601-0.665c0-0.427,0-0.844,0-1.229c-0.21-0.24-0.4-0.458-0.585-0.669
			c0.183-0.252,0.583-0.382,0.48-0.692c-0.129-0.386-0.545-0.167-0.846-0.249c-0.445-0.663-0.446-0.665,0.075-1.235
			c0.204,0.014,0.408,0.027,0.612,0.041c0.297,0.297,0.593,0.593,0.896,0.896c0,0.202,0,0.41,0,0.613
			c0.651,0.482,0.653,0.483,1.278-0.024c0-0.196,0-0.402,0-0.584c0.327-0.649,1.456,0.117,1.379-0.929c2.456,0,4.76,0,7.087,0
			c0.206,0.192,0.433,0.403,0.666,0.62c0.411,0,0.829,0,1.243,0c0.269,0.309,0.243,0.553-0.074,0.62
			c-0.198,0.041-0.405,0.036-0.608,0.052c-0.297,0.297-0.593,0.593-0.893,0.893c0,0.415,0,0.834,0,1.25
			c-0.665,0.471-0.667,0.472-1.277-0.047c0-0.402,0-0.817,0-1.216c-0.09-0.09-0.216-0.237-0.23-0.227
			c-0.138,0.099-0.351,0.213-0.366,0.344c-0.047,0.404-0.017,0.818-0.017,1.158c-0.441,0.441-0.811,0.811-1.182,1.182
			c-0.111,0.963-0.036,1.042,0.922,0.966c0.074-0.074,0.158-0.141,0.221-0.224c0.154-0.205,0.307-0.315,0.445-0.255
			c0.23,0.101,0.275,0.288,0.232,0.534C39.63,32.828,39.658,33.042,39.658,33.252z M39.763,27.799
			c-0.07,0.14-0.004,0.288,0.216,0.408c0.024,0.013,0.149-0.119,0.2-0.201c0.083-0.132,0.008-0.286-0.212-0.406
			C39.942,27.587,39.833,27.729,39.763,27.799z M32.841,37.237c-0.07,0.14-0.004,0.288,0.216,0.408
			c0.024,0.013,0.149-0.119,0.2-0.201c0.083-0.132,0.008-0.285-0.212-0.406C33.021,37.025,32.911,37.167,32.841,37.237z"/>
		<path d="M34.624,50.87c0-0.104-0.043-0.243,0.008-0.305c0.193-0.238,0.417-0.45,0.634-0.677c0-0.208,0-0.412,0-0.581
			c0.211-0.242,0.399-0.457,0.582-0.666c-0.186-0.249-0.58-0.386-0.485-0.685c0.12-0.376,0.53-0.196,0.865-0.24
			c0.268,0.281,0.582,0.56,0.827,0.89c0.103,0.139,0.061,0.386,0.09,0.623c-0.181,0.208-0.38,0.436-0.597,0.686
			c0.182,0.203,0.377,0.419,0.586,0.653c0,0.597,0,1.219,0,1.844c0.212,0.224,0.423,0.448,0.636,0.674c0,0.308,0,0.619,0,0.931
			c-0.293,0-0.587-0.011-0.878,0.007c-0.078,0.005-0.162,0.09-0.223,0.157c-0.05,0.054-0.113,0.153-0.094,0.2
			c0.035,0.083,0.118,0.184,0.199,0.205c0.675,0.174,0.866,0.059,0.996-0.569c0.717,0,1.436-0.025,2.15,0.015
			c0.221,0.012,0.33,0.234,0.275,0.381c-0.032,0.087-0.138,0.148-0.217,0.227c-0.401,0-0.809,0-1.211,0
			c-0.511,0.579-0.507,0.581-0.069,1.253c0.218-0.205,0.434-0.409,0.654-0.618c0.196,0,0.419-0.051,0.602,0.013
			c0.241,0.084,0.317,0.278,0.218,0.41c-0.176,0.233-0.508,0.374-0.506,0.71c0.002,0.325-0.076,0.581-0.364,0.755
			c-0.507,0-1.019,0-1.531,0c0-0.296,0-0.593,0-0.889c-0.304-0.347-0.574-0.729-0.994-0.929c-0.222,0.197-0.438,0.387-0.634,0.56
			c-0.531,0-1.025,0-1.519,0c-0.07-0.234,0.001-0.407,0.211-0.527c0.328-0.188,0.814,0.013,1.083-0.52
			c-0.401-0.401-0.831-0.831-1.29-1.29c0.008-0.134,0.021-0.334,0.034-0.533c0.372-0.441,0.901-0.744,1.131-1.278
			c-0.293-0.301-0.57-0.602-0.869-0.879C34.869,50.827,34.727,50.87,34.624,50.87z"/>
		<path d="M33.995,45.207c-0.104,0-0.241,0.043-0.305-0.008c-0.232-0.185-0.439-0.401-0.654-0.605
			c-0.522,0.406-0.205,0.967-0.301,1.45c-0.259,0.404-0.565,0.766-1.015,0.977c-0.076-0.076-0.211-0.148-0.213-0.223
			c-0.022-0.722-0.008-1.445-0.033-2.167c-0.019-0.544,0.272-0.7,0.749-0.687c0.092,0.003,0.233-0.019,0.271-0.079
			c0.4-0.644,1.032-0.549,1.644-0.551c0.298-0.001,0.417-0.179,0.487-0.624c0.231,0.069,0.412,0.004,0.52-0.208
			c0.111-0.219-0.068-0.362-0.52-0.421c0.073-0.238,0.009-0.441-0.221-0.526c-0.271-0.1-0.565-0.14-0.84-0.23
			c-0.073-0.024-0.115-0.139-0.173-0.214c0.508-0.376,0.813-0.871,0.557-1.777c1.217,1.031,1.202,1.039,1.419,1.916
			c0.367,0.367,0.734,0.734,1.146,1.146c0,0.261-0.001,0.566,0,0.872c0.003,0.53-0.154,0.679-0.73,0.699
			c-0.302,0.011-0.605,0.002-0.83,0.002c-0.367,0.363-0.67,0.647-0.95,0.954C33.951,44.959,33.995,45.104,33.995,45.207z"/>
		<path d="M48.781,31.365c0.562,0.512,0.309,1.114,0.171,1.782c-0.258,0.036-0.543,0.076-0.748,0.105
			c-0.578-0.578-1.094-1.095-1.624-1.624c0-0.079-0.016-0.187,0.003-0.288c0.046-0.235-0.018-0.435-0.247-0.521
			c-0.149-0.056-0.316,0.083-0.379,0.312c-0.053,0.193-0.044,0.402-0.062,0.602c-0.297,0.298-0.593,0.594-0.889,0.89
			c-0.42,0-0.84,0.011-1.258-0.01c-0.078-0.004-0.168-0.127-0.216-0.216c-0.028-0.053-0.009-0.167,0.033-0.215
			c0.428-0.488,0.608-0.584,1.512-0.898c0.089-0.031,0.15-0.142,0.233-0.225c0-0.408,0-0.824,0-1.232
			c0.219-0.237,0.429-0.464,0.638-0.692c0-0.105,0.016-0.213-0.003-0.314c-0.045-0.235,0.018-0.435,0.247-0.521
			c0.149-0.056,0.316,0.084,0.378,0.313c0.053,0.193,0.044,0.402,0.062,0.604c0.148,0.148,0.297,0.296,0.451,0.451
			c0.236,0.373,0.08,0.796,0.122,1.197c0.034,0.329,0.242,0.505,0.63,0.499C48.152,31.361,48.466,31.365,48.781,31.365z"/>
		<path d="M33.366,47.095c-0.098,0.505,0.451,0.583,0.655,1.246c0.01,0.062,0.035,0.438-0.419,0.641c-0.279,0-0.572,0-0.865,0
			c0.07-0.233,0.004-0.416-0.211-0.523c-0.4-0.2-0.757-0.151-1.047,0.212c0,0.204,0,0.408,0,0.612
			c-0.615,0.456-0.617,0.455-1.257,0.016c0-0.203,0-0.407,0-0.719c0.17-0.149,0.41-0.339,0.621-0.556
			c0.051-0.053,0.008-0.197,0.008-0.299c0.514,0,1.029,0,1.678,0c0.136-0.161,0.323-0.406,0.538-0.622
			C33.116,47.051,33.263,47.095,33.366,47.095z"/>
		<path d="M53.201,28.848c-0.228,0.208-0.447,0.408-0.666,0.607c-0.09-0.09-0.221-0.158-0.228-0.239
			c-0.039-0.409-0.075-0.824-0.046-1.232c0.008-0.119,0.234-0.222,0.36-0.332c0.158,0.158,0.306,0.306,0.456,0.456
			c0.359,0.058,0.438-0.305,0.689-0.454c0.357-0.093,0.739-0.192,0.938,0.302c-0.297,0.298-0.593,0.594-0.888,0.89
			C53.605,28.848,53.396,28.848,53.201,28.848z"/>
		<path d="M46.579,53.058c0.042-0.277-0.154-0.689,0.229-0.816c0.305-0.101,0.442,0.295,0.659,0.462
			c0.082,0.063,0.157,0.14,0.221,0.222c0.06,0.076,0.101,0.167,0.114,0.189c0,0.472,0,0.881,0,1.166
			c-0.346,0.394-0.618,0.703-0.958,1.09c-0.126-0.367-0.221-0.641-0.316-0.918c0.231-0.264,0.432-0.494,0.648-0.742
			C46.987,53.505,46.787,53.285,46.579,53.058z"/>
		<path d="M37.77,59.05c-0.101,0-0.24-0.043-0.295,0.007c-0.22,0.202-0.414,0.433-0.625,0.661c-0.492-0.769-0.492-0.769,0.184-1.505
			c0.071-0.142-0.039-0.249-0.206-0.433c-0.459-0.505-0.46-0.572,0.023-1.284c0.21,0.227,0.404,0.458,0.624,0.66
			c0.055,0.05,0.194,0.007,0.295,0.007C37.77,57.792,37.77,58.421,37.77,59.05z"/>
		<path d="M38.089,59.05c0.365-0.367,0.73-0.739,1.104-1.103c0.052-0.051,0.145-0.059,0.221-0.088
			c0.467,0.424,0.137,0.981,0.245,1.463c-0.065,0.079-0.115,0.204-0.195,0.227c-0.618,0.176-0.838,0.191-1.471,0.027
			c-0.235-0.061-0.309-0.292-0.21-0.52C37.799,59.018,37.979,59.05,38.089,59.05z"/>
		<path d="M48.15,55.906c0.276,0.194,0.265,0.492,0.341,0.782c0.068,0.261,0.378,0.45,0.509,0.707
			c0.198,0.388,0.149,0.761-0.245,1.02c-0.208,0-0.411,0-0.608,0c-0.078-0.078-0.197-0.14-0.215-0.224
			c-0.152-0.688-0.168-1.382,0.01-2.069C47.965,56.038,48.08,55.977,48.15,55.906z"/>
		<path d="M30.725,43.949c0.093,0.787,0.372,1.385-0.219,1.913c-0.274-0.292-0.582-0.562-0.815-0.886
			c-0.175-0.242-0.151-0.551,0.012-0.824c0.12-0.202,0.293-0.262,0.527-0.206C30.326,43.968,30.433,43.949,30.725,43.949z"/>
		<path d="M41.276,38.241c0.114,0.28,0.218,0.537,0.298,0.733c-0.167,0.601-0.701,0.785-0.925,1.197
			c-0.383-0.018-0.801,0.134-0.931-0.371C40.24,39.277,40.735,38.782,41.276,38.241z"/>
		<path d="M47.838,29.162c0.284-0.284,0.568-0.568,0.852-0.852c0.148-0.045,0.284,0.038,0.407,0.25c0,0.401,0.026,0.806-0.018,1.202
			c-0.011,0.101-0.247,0.178-0.376,0.263C48.406,29.73,48.122,29.446,47.838,29.162z"/>
		<path d="M48.782,61.567c0.205,0,0.409,0,0.614,0c0.458,0.614,0.457,0.617,0.015,1.258c-0.205,0-0.409,0-0.614,0
			C48.369,62.21,48.369,62.21,48.782,61.567z"/>
		<path d="M50.024,30.09c0.301,0.301,0.586,0.586,0.874,0.874c-0.077,0.59-0.537,0.349-0.866,0.398
			C49.577,30.939,49.634,30.522,50.024,30.09z"/>
		<path d="M39.973,40.803c0.435,0.626,0.434,0.628-0.014,1.281c-0.21-0.222-0.4-0.459-0.626-0.652
			c-0.198-0.169-0.277-0.289-0.186-0.433c0.123-0.194,0.293-0.253,0.525-0.199C39.767,40.822,39.872,40.803,39.973,40.803z"/>
		<path d="M40.738,42.598c0.241,0.896,0.238,1.462-0.033,2.043c-0.515-0.341-0.399-0.768-0.42-1.16
			C40.267,43.164,40.328,42.887,40.738,42.598z"/>
		<path d="M49.06,60.03c0.471-0.487,0.886-0.488,1.297-0.027c-0.04,0.28,0.121,0.613-0.205,0.821
			c-0.139,0.089-0.262-0.003-0.433-0.196C49.524,60.408,49.282,60.228,49.06,60.03z"/>
		<path d="M34.624,55.904c0,0.294,0,0.587,0,0.881c-0.502,0.51-0.562,0.505-1.179,0.143C34.061,56.123,34.057,56.119,34.624,55.904z
			"/>
		<path d="M47.523,60.937c0.452,0.421,0.452,0.84,0,1.261C47.071,61.777,47.071,61.358,47.523,60.937z"/>
		<path d="M40.916,50.86c-0.003,0.39-0.198,0.646-0.414,0.539c-0.218-0.108-0.279-0.283-0.219-0.518
			c0.024-0.095-0.029-0.218,0.01-0.3c0.109-0.225,0.266-0.311,0.405-0.235c0.085,0.046,0.174,0.127,0.21,0.213
			C40.944,50.646,40.916,50.758,40.916,50.86z"/>
		<path d="M36.412,46.88c-0.146,0.314-0.829,0.326-1.039,0.012c-0.035-0.052-0.04-0.152-0.015-0.21
			c0.137-0.318,0.825-0.328,1.035-0.014C36.427,46.72,36.407,46.809,36.412,46.88z"/>
		<path d="M33.995,45.207c0.293,0,0.593-0.037,0.876,0.017c0.127,0.024,0.328,0.253,0.307,0.347
			c-0.046,0.205-0.256,0.292-0.455,0.263c-0.18-0.026-0.368-0.054-0.533-0.126C33.986,45.618,33.931,45.429,33.995,45.207z"/>
		<path d="M37.77,43.32c0.13-0.628,0.321-0.743,0.996-0.569c0.081,0.021,0.164,0.121,0.199,0.205c0.02,0.047-0.044,0.146-0.093,0.2
			c-0.061,0.067-0.145,0.152-0.223,0.157C38.357,43.331,38.063,43.32,37.77,43.32z"/>
		<path d="M42.699,29.896c-0.07,0.07-0.179,0.212-0.204,0.199c-0.22-0.121-0.295-0.274-0.212-0.406
			c0.051-0.082,0.176-0.214,0.2-0.201C42.704,29.609,42.769,29.756,42.699,29.896z"/>
		<path d="M29.066,33.672c-0.07-0.14-0.004-0.288,0.216-0.408c0.024-0.013,0.149,0.119,0.2,0.201
			c0.083,0.132,0.008,0.285-0.212,0.406C29.245,33.883,29.136,33.742,29.066,33.672z"/>
		<path d="M40.218,33.631c0.013,0.023-0.158,0.194-0.181,0.181c-0.137-0.074-0.306-0.157-0.368-0.285
			c-0.129-0.263,0.001-0.394,0.265-0.265C40.061,33.325,40.144,33.494,40.218,33.631z"/>
		<path d="M37.141,35.14c0.452,0.059,0.631,0.202,0.52,0.421c-0.108,0.212-0.289,0.277-0.52,0.208
			C37.141,35.559,37.141,35.35,37.141,35.14z"/>
		<path d="M37.141,35.769c-0.059,0.452-0.202,0.631-0.421,0.52c-0.212-0.107-0.277-0.289-0.208-0.52
			C36.722,35.769,36.931,35.769,37.141,35.769z"/>
		<path d="M30.213,37.306c-0.028,0.08-0.102,0.151-0.17,0.207c-0.053,0.043-0.151,0.1-0.192,0.078
			c-0.233-0.118-0.252-0.244-0.124-0.394c0.134-0.158,0.287-0.24,0.489-0.159C30.247,37.052,30.242,37.223,30.213,37.306z"/>
		<path d="M30.01,41.956c-0.14,0.07-0.288,0.004-0.408-0.216c-0.013-0.024,0.119-0.149,0.201-0.2
			c0.132-0.083,0.285-0.008,0.406,0.212C30.222,41.777,30.08,41.886,30.01,41.956z"/>
		<path d="M34.624,42.691c-0.452-0.059-0.631-0.202-0.52-0.421c0.107-0.212,0.289-0.277,0.52-0.208
			C34.624,42.271,34.624,42.481,34.624,42.691z"/>
		<path d="M37.764,43.598c-0.028,0.08-0.102,0.151-0.17,0.207c-0.053,0.043-0.151,0.1-0.192,0.079
			c-0.233-0.118-0.252-0.244-0.124-0.394c0.134-0.158,0.287-0.24,0.489-0.159C37.798,43.344,37.793,43.515,37.764,43.598z"/>
		<path d="M38.924,46.256c-0.07,0.07-0.179,0.212-0.204,0.199c-0.22-0.121-0.295-0.274-0.212-0.406
			c0.051-0.082,0.176-0.214,0.2-0.201C38.928,45.968,38.994,46.116,38.924,46.256z"/>
		<path d="M33.745,46.535c0.023-0.013,0.194,0.158,0.181,0.181c-0.074,0.137-0.158,0.306-0.285,0.368
			c-0.263,0.129-0.394-0.001-0.265-0.265C33.439,46.693,33.608,46.609,33.745,46.535z"/>
		<path d="M30.571,47.718c-0.08-0.028-0.151-0.102-0.207-0.17c-0.043-0.053-0.1-0.151-0.078-0.192
			c0.118-0.233,0.244-0.252,0.394-0.124c0.158,0.135,0.24,0.287,0.159,0.489C30.825,47.752,30.654,47.747,30.571,47.718z"/>
		<path d="M32.73,49.261c-0.028,0.08-0.102,0.151-0.17,0.207c-0.053,0.043-0.151,0.1-0.192,0.079
			c-0.233-0.118-0.252-0.244-0.124-0.394c0.135-0.158,0.287-0.24,0.489-0.159C32.764,49.007,32.759,49.178,32.73,49.261z"/>
		<path d="M34.618,51.149c-0.028,0.08-0.102,0.151-0.17,0.207c-0.053,0.043-0.151,0.1-0.192,0.079
			c-0.233-0.118-0.252-0.244-0.124-0.394c0.134-0.158,0.287-0.24,0.489-0.159C34.652,50.895,34.647,51.065,34.618,51.149z"/>
		<path d="M46.684,57.372c0.07-0.07,0.179-0.212,0.204-0.198c0.22,0.121,0.295,0.274,0.212,0.406
			c-0.051,0.082-0.176,0.214-0.2,0.201C46.68,57.66,46.614,57.512,46.684,57.372z"/>
	</g>
</g>
</svg>
